<mxfile host="Chrome" modified="2024-06-10T11:55:00.831Z" agent="Mozilla/5.0 (Windows NT 10.0; Win64; x64) AppleWebKit/537.36 (KHTML, like Gecko) Chrome/96.0.4664.45 Safari/537.36" version="21.2.7" etag="vIiobiOXYpTxsDo9sXUw" type="device">
  <diagram id="Nu_2B79WNzlarJoW-T3Y" name="Page-1">
    <mxGraphModel dx="1836" dy="928" grid="1" gridSize="10" guides="1" tooltips="1" connect="1" arrows="1" fold="1" page="1" pageScale="1" pageWidth="850" pageHeight="1100" math="0" shadow="0">
      <root>
        <mxCell id="0" />
        <mxCell id="1" parent="0" />
        <mxCell id="uT-C64DfwY5bM5UE6w2k-8" style="edgeStyle=orthogonalEdgeStyle;rounded=0;orthogonalLoop=1;jettySize=auto;html=1;exitX=0.5;exitY=1;exitDx=0;exitDy=0;entryX=0.5;entryY=0;entryDx=0;entryDy=0;" edge="1" parent="1" source="uT-C64DfwY5bM5UE6w2k-1" target="uT-C64DfwY5bM5UE6w2k-4">
          <mxGeometry relative="1" as="geometry" />
        </mxCell>
        <mxCell id="uT-C64DfwY5bM5UE6w2k-1" value="organisation" style="swimlane;childLayout=stackLayout;horizontal=1;startSize=50;horizontalStack=0;rounded=1;fontSize=14;fontStyle=0;strokeWidth=2;resizeParent=0;resizeLast=1;shadow=0;dashed=0;align=center;arcSize=4;whiteSpace=wrap;html=1;" vertex="1" parent="1">
          <mxGeometry x="180" y="120" width="160" height="90" as="geometry" />
        </mxCell>
        <mxCell id="uT-C64DfwY5bM5UE6w2k-2" value="#reforganisation&lt;br&gt;organisation" style="align=left;strokeColor=none;fillColor=none;spacingLeft=4;fontSize=12;verticalAlign=top;resizable=0;rotatable=0;part=1;html=1;" vertex="1" parent="uT-C64DfwY5bM5UE6w2k-1">
          <mxGeometry y="50" width="160" height="40" as="geometry" />
        </mxCell>
        <mxCell id="uT-C64DfwY5bM5UE6w2k-4" value="company" style="swimlane;childLayout=stackLayout;horizontal=1;startSize=50;horizontalStack=0;rounded=1;fontSize=14;fontStyle=0;strokeWidth=2;resizeParent=0;resizeLast=1;shadow=0;dashed=0;align=center;arcSize=4;whiteSpace=wrap;html=1;" vertex="1" parent="1">
          <mxGeometry x="180" y="250" width="160" height="90" as="geometry" />
        </mxCell>
        <mxCell id="uT-C64DfwY5bM5UE6w2k-5" value="#refcompany&lt;br&gt;company" style="align=left;strokeColor=none;fillColor=none;spacingLeft=4;fontSize=12;verticalAlign=top;resizable=0;rotatable=0;part=1;html=1;" vertex="1" parent="uT-C64DfwY5bM5UE6w2k-4">
          <mxGeometry y="50" width="160" height="40" as="geometry" />
        </mxCell>
        <mxCell id="uT-C64DfwY5bM5UE6w2k-6" value="site-geographique" style="swimlane;childLayout=stackLayout;horizontal=1;startSize=50;horizontalStack=0;rounded=1;fontSize=14;fontStyle=0;strokeWidth=2;resizeParent=0;resizeLast=1;shadow=0;dashed=0;align=center;arcSize=4;whiteSpace=wrap;html=1;" vertex="1" parent="1">
          <mxGeometry x="180" y="380" width="160" height="90" as="geometry" />
        </mxCell>
        <mxCell id="uT-C64DfwY5bM5UE6w2k-7" value="#ref-site-geographique&lt;br&gt;site-geographique" style="align=left;strokeColor=none;fillColor=none;spacingLeft=4;fontSize=12;verticalAlign=top;resizable=0;rotatable=0;part=1;html=1;" vertex="1" parent="uT-C64DfwY5bM5UE6w2k-6">
          <mxGeometry y="50" width="160" height="40" as="geometry" />
        </mxCell>
        <mxCell id="uT-C64DfwY5bM5UE6w2k-9" style="edgeStyle=orthogonalEdgeStyle;rounded=0;orthogonalLoop=1;jettySize=auto;html=1;exitX=0.5;exitY=1;exitDx=0;exitDy=0;entryX=0.5;entryY=0;entryDx=0;entryDy=0;" edge="1" parent="1" source="uT-C64DfwY5bM5UE6w2k-5" target="uT-C64DfwY5bM5UE6w2k-6">
          <mxGeometry relative="1" as="geometry" />
        </mxCell>
        <mxCell id="uT-C64DfwY5bM5UE6w2k-11" value="entrepot" style="swimlane;childLayout=stackLayout;horizontal=1;startSize=50;horizontalStack=0;rounded=1;fontSize=14;fontStyle=0;strokeWidth=2;resizeParent=0;resizeLast=1;shadow=0;dashed=0;align=center;arcSize=4;whiteSpace=wrap;html=1;" vertex="1" parent="1">
          <mxGeometry x="180" y="505" width="160" height="90" as="geometry" />
        </mxCell>
        <mxCell id="uT-C64DfwY5bM5UE6w2k-12" value="#ref-entrepot&lt;br&gt;entrepot" style="align=left;strokeColor=none;fillColor=none;spacingLeft=4;fontSize=12;verticalAlign=top;resizable=0;rotatable=0;part=1;html=1;" vertex="1" parent="uT-C64DfwY5bM5UE6w2k-11">
          <mxGeometry y="50" width="160" height="40" as="geometry" />
        </mxCell>
        <mxCell id="uT-C64DfwY5bM5UE6w2k-13" style="edgeStyle=orthogonalEdgeStyle;rounded=0;orthogonalLoop=1;jettySize=auto;html=1;exitX=0.5;exitY=1;exitDx=0;exitDy=0;entryX=0.5;entryY=0;entryDx=0;entryDy=0;" edge="1" parent="1" source="uT-C64DfwY5bM5UE6w2k-7" target="uT-C64DfwY5bM5UE6w2k-11">
          <mxGeometry relative="1" as="geometry" />
        </mxCell>
        <mxCell id="uT-C64DfwY5bM5UE6w2k-14" value="zones" style="swimlane;childLayout=stackLayout;horizontal=1;startSize=50;horizontalStack=0;rounded=1;fontSize=14;fontStyle=0;strokeWidth=2;resizeParent=0;resizeLast=1;shadow=0;dashed=0;align=center;arcSize=4;whiteSpace=wrap;html=1;" vertex="1" parent="1">
          <mxGeometry x="180" y="630" width="160" height="90" as="geometry" />
        </mxCell>
        <mxCell id="uT-C64DfwY5bM5UE6w2k-15" value="#ref-zone&lt;br&gt;zone" style="align=left;strokeColor=none;fillColor=none;spacingLeft=4;fontSize=12;verticalAlign=top;resizable=0;rotatable=0;part=1;html=1;" vertex="1" parent="uT-C64DfwY5bM5UE6w2k-14">
          <mxGeometry y="50" width="160" height="40" as="geometry" />
        </mxCell>
        <mxCell id="uT-C64DfwY5bM5UE6w2k-16" style="edgeStyle=orthogonalEdgeStyle;rounded=0;orthogonalLoop=1;jettySize=auto;html=1;exitX=0.5;exitY=1;exitDx=0;exitDy=0;entryX=0.5;entryY=0;entryDx=0;entryDy=0;" edge="1" parent="1" source="uT-C64DfwY5bM5UE6w2k-12" target="uT-C64DfwY5bM5UE6w2k-14">
          <mxGeometry relative="1" as="geometry" />
        </mxCell>
        <mxCell id="uT-C64DfwY5bM5UE6w2k-17" value="allÃ©e" style="swimlane;childLayout=stackLayout;horizontal=1;startSize=50;horizontalStack=0;rounded=1;fontSize=14;fontStyle=0;strokeWidth=2;resizeParent=0;resizeLast=1;shadow=0;dashed=0;align=center;arcSize=4;whiteSpace=wrap;html=1;" vertex="1" parent="1">
          <mxGeometry x="180" y="760" width="160" height="90" as="geometry" />
        </mxCell>
        <mxCell id="uT-C64DfwY5bM5UE6w2k-18" value="#ref-aisle&lt;br&gt;aisle" style="align=left;strokeColor=none;fillColor=none;spacingLeft=4;fontSize=12;verticalAlign=top;resizable=0;rotatable=0;part=1;html=1;" vertex="1" parent="uT-C64DfwY5bM5UE6w2k-17">
          <mxGeometry y="50" width="160" height="40" as="geometry" />
        </mxCell>
        <mxCell id="uT-C64DfwY5bM5UE6w2k-19" style="edgeStyle=orthogonalEdgeStyle;rounded=0;orthogonalLoop=1;jettySize=auto;html=1;exitX=0.5;exitY=1;exitDx=0;exitDy=0;" edge="1" parent="1" source="uT-C64DfwY5bM5UE6w2k-15" target="uT-C64DfwY5bM5UE6w2k-17">
          <mxGeometry relative="1" as="geometry" />
        </mxCell>
        <mxCell id="uT-C64DfwY5bM5UE6w2k-20" value="locations" style="swimlane;childLayout=stackLayout;horizontal=1;startSize=50;horizontalStack=0;rounded=1;fontSize=14;fontStyle=0;strokeWidth=2;resizeParent=0;resizeLast=1;shadow=0;dashed=0;align=center;arcSize=4;whiteSpace=wrap;html=1;" vertex="1" parent="1">
          <mxGeometry x="180" y="890" width="160" height="90" as="geometry" />
        </mxCell>
        <mxCell id="uT-C64DfwY5bM5UE6w2k-21" value="#ref-location&lt;br&gt;location" style="align=left;strokeColor=none;fillColor=none;spacingLeft=4;fontSize=12;verticalAlign=top;resizable=0;rotatable=0;part=1;html=1;" vertex="1" parent="uT-C64DfwY5bM5UE6w2k-20">
          <mxGeometry y="50" width="160" height="40" as="geometry" />
        </mxCell>
        <mxCell id="uT-C64DfwY5bM5UE6w2k-22" style="edgeStyle=orthogonalEdgeStyle;rounded=0;orthogonalLoop=1;jettySize=auto;html=1;exitX=0.5;exitY=1;exitDx=0;exitDy=0;" edge="1" parent="1" source="uT-C64DfwY5bM5UE6w2k-18" target="uT-C64DfwY5bM5UE6w2k-20">
          <mxGeometry relative="1" as="geometry" />
        </mxCell>
      </root>
    </mxGraphModel>
  </diagram>
</mxfile>
